<svg width="51" height="40" viewBox="0 0 51 40" fill="none" xmlns="http://www.w3.org/2000/svg">
<path d="M25.4329 0.000598907C25.4329 0.000598907 25.0038 0.692364 24.8965 0.791187C24.7825 0.896187 23.4078 2.76148 22.7841 3.66325C22.5695 3.96589 22.3147 4.33031 22.2141 4.46619C22.0196 4.73178 20.5376 7.01707 20.5376 7.0603C20.5376 7.07266 20.4035 7.28883 20.2426 7.53589C19.8 8.22766 18.7673 10.1671 18.4119 10.9824C18.3582 11.0997 18.2778 11.2788 18.2308 11.3838C18.1772 11.4827 18.0431 11.8162 17.9223 12.125C17.8016 12.4277 17.6809 12.7365 17.6541 12.8044C17.3859 13.4282 16.8427 15.3368 16.7153 16.1397C16.5275 17.2824 16.5074 17.5603 16.5342 18.3941C16.5946 19.9938 17.0573 21.3712 17.9358 22.6003C18.3113 23.1253 18.3649 23.1871 18.8679 23.7182C19.6994 24.6077 21.2418 25.5341 22.5628 25.9541C23.6156 26.2877 24.3734 26.3803 25.8286 26.3432C27.0692 26.3185 27.7129 26.2382 28.2159 26.053C28.2896 26.0282 28.5445 25.9418 28.7859 25.8615C29.3693 25.6762 29.9125 25.4168 30.5629 25.0277C31.1329 24.6756 32.0919 23.9159 32.3467 23.6132C32.4339 23.5082 32.5211 23.4156 32.5412 23.3971C32.6753 23.2921 33.0776 22.7856 33.0776 22.7238C33.0776 22.6868 33.1045 22.6559 33.1313 22.6559C33.2051 22.6559 33.7616 21.68 33.9494 21.2353C34.0232 21.05 34.1171 20.84 34.1506 20.7721C34.2378 20.6053 34.4591 19.7035 34.5529 19.1291C34.7206 18.1347 34.5194 16.2447 34.0768 14.7006C33.9963 14.4412 33.9159 14.1385 33.8891 14.0397C33.8354 13.8544 33.8153 13.7927 33.5202 12.9588C33.3191 12.3968 32.6619 10.8403 32.4272 10.3647C31.8236 9.15413 30.7708 7.31354 30.0063 6.13383C29.3961 5.19501 28.35 3.66325 28.3031 3.64472C28.2762 3.63236 28.2494 3.60148 28.2494 3.5706C28.2494 3.51501 27.1295 1.96472 26.4858 1.13089C26.2779 0.859127 25.9895 0.476189 25.8554 0.284718C25.6207 -0.048811 25.5 0 25.4329 0.000598907Z" fill="#318CE7"/>
<path d="M0.393175 18.1162C0.299293 18.6906 0.305999 20.0927 0.399881 20.9018C0.513881 21.9703 0.574234 22.2853 0.788823 23.0882C0.936352 23.6565 0.929646 23.6318 1.08388 24.0703C1.20459 24.41 1.2247 24.62 1.2247 25.565C1.2247 26.8559 1.23141 26.8991 1.87518 28.1221L2.13 28.6162L2.16353 27.5662C2.18365 26.9856 2.21047 26.5532 2.21718 26.5965C2.22388 26.6459 2.34459 26.8559 2.4787 27.0597C3.13588 28.0788 3.33706 28.3691 3.37059 28.4C3.3907 28.4185 3.52482 28.5915 3.66565 28.783C3.80647 28.9806 3.97412 29.1844 4.03447 29.2462C4.45694 29.6724 4.44353 29.6291 4.44353 30.8088C4.44353 32.0318 4.41 31.9268 5.01353 32.5259L5.28176 32.7915L5.31529 31.7415L5.34882 30.6915L5.98588 31.2597C6.33459 31.5747 6.83753 32.0009 7.09235 32.2109C7.66906 32.668 9.06388 33.65 9.14435 33.65C9.17788 33.65 9.20471 34.1627 9.20471 34.7865C9.20471 35.8735 9.21141 35.9291 9.33882 35.9662C9.41259 35.9847 9.47294 36.0341 9.47294 36.065C9.47294 36.0959 9.50647 36.1206 9.54671 36.1206C9.58694 36.1206 9.69423 36.1762 9.78812 36.2441C10.1301 36.4912 10.1435 36.4603 10.1435 35.3115V34.2553L10.3648 34.385C10.6264 34.5332 12.3028 35.3794 12.3364 35.3794C12.3498 35.3794 12.6448 35.503 13.0002 35.6574C13.3489 35.8118 13.6507 35.9353 13.6708 35.9353C13.7044 35.9353 14.0262 36.065 14.5493 36.2812C14.6633 36.3306 14.8041 36.3677 14.8578 36.3677C14.9181 36.3677 14.9852 36.3924 15.0053 36.4294C15.0254 36.4603 15.1059 36.4912 15.1796 36.4912C15.3004 36.4912 15.3071 36.5406 15.3071 37.603V38.7147L15.5351 38.8012C15.6558 38.8444 15.8502 38.9062 15.9709 38.9309L16.1788 38.9741V37.8932V36.8124L16.5342 36.905C16.8427 36.9853 17.4395 37.1335 17.7212 37.2015C17.7748 37.2138 17.9559 37.2571 18.1235 37.2941C18.6466 37.4177 19.2702 37.5412 20.0347 37.6647C20.6852 37.7697 21.0205 37.813 22.1806 37.9365C22.3281 37.955 22.7841 37.9859 23.1865 38.0044C23.5955 38.023 24.0851 38.0538 24.2795 38.0724L24.6282 38.1032V39.0297V39.95H25.0976H25.5671V39.0297V38.1094L26.6601 38.0662C27.2569 38.0415 27.8538 38.0168 27.9812 38.0044C29.8454 37.8624 31.5085 37.6277 32.8094 37.3127C33.0106 37.2632 33.2386 37.2138 33.3124 37.2015C33.3861 37.183 33.7549 37.0965 34.1372 36.9977L34.8212 36.8185V37.8994V38.9741L35.0089 38.9371C35.1095 38.9124 35.3174 38.8506 35.4784 38.795L35.76 38.6962V37.6091V36.5221L36.5178 36.2565C36.9268 36.1082 37.4633 35.9044 37.7047 35.7994C38.7039 35.3732 39.5689 34.978 39.8841 34.805C40.0719 34.7062 40.3804 34.5394 40.5681 34.4468L40.9235 34.2677V35.3177C40.9235 35.923 40.9504 36.3677 40.9839 36.3677C41.0174 36.3677 41.232 36.2565 41.4533 36.1206L41.8624 35.8674V34.7618C41.8624 33.6747 41.8624 33.65 42.0166 33.5821C42.1507 33.5141 43.056 32.8965 43.3712 32.6556C44.0351 32.143 44.2698 31.9515 44.8934 31.3894C45.2824 31.0374 45.6244 30.7471 45.6445 30.7471C45.6646 30.7471 45.6847 31.2041 45.6847 31.7662C45.6847 32.3282 45.7115 32.7853 45.7451 32.7853C45.7786 32.7853 45.906 32.668 46.0401 32.5197C46.1675 32.3777 46.3553 32.1738 46.4492 32.075C46.6235 31.8897 46.6235 31.8897 46.6235 30.7841V29.6785L46.9789 29.2709C47.1734 29.0485 47.5154 28.61 47.73 28.3074C47.9446 27.9985 48.1793 27.6774 48.2464 27.5847C48.3134 27.4921 48.3671 27.4056 48.3671 27.3871C48.3671 27.3747 48.4878 27.1709 48.6353 26.9362L48.8968 26.5162L48.9169 27.56C48.9304 28.4185 48.9505 28.5791 49.0175 28.4556C49.1852 28.1468 49.5071 27.4612 49.5071 27.4241C49.5071 27.3994 49.5607 27.2944 49.6211 27.1956C49.7149 27.0474 49.7418 26.7632 49.7753 25.6824C49.8155 24.5397 49.8424 24.305 49.9631 24.0147C50.1911 23.4712 50.4124 22.4953 50.6336 21.1118C50.7074 20.6671 50.7141 18.3015 50.6471 17.9618L50.6068 17.7456L50.5532 18.0544C50.5264 18.2212 50.4794 18.4621 50.4459 18.5794C50.4191 18.6968 50.3721 18.9191 50.3453 19.0735C50.2984 19.333 50.1508 19.9074 49.9765 20.4632C49.8826 20.7782 49.5942 21.4947 49.4333 21.8344C49.3595 21.9765 49.3059 22.1062 49.3059 22.1247C49.3059 22.1618 48.7359 23.2427 48.6353 23.3971C48.6018 23.4465 48.4207 23.7368 48.2262 24.0456C47.7904 24.7312 46.8448 25.9912 46.6235 26.1765C46.6034 26.195 46.4224 26.3865 46.2212 26.6088C45.7518 27.1277 44.5715 28.2147 44.0082 28.6471C43.7668 28.8324 43.5589 29.0053 43.5388 29.0238C43.4986 29.0671 42.1641 29.9874 41.9294 30.1294C41.8489 30.1788 41.7215 30.2715 41.6478 30.3271C41.5673 30.3888 41.4667 30.4382 41.4198 30.4382C41.3728 30.4382 41.3259 30.463 41.3125 30.4877C41.2454 30.6421 38.6771 31.933 37.6041 32.353C37.4231 32.4271 37.2085 32.5074 37.1347 32.5382C36.8665 32.6556 35.2436 33.1991 34.8547 33.3041C34.6334 33.3659 34.3786 33.44 34.2847 33.4709C34.0701 33.5388 32.6082 33.8847 32.2059 33.965C30.5898 34.2738 29.8789 34.3665 27.9812 34.5147C26.0029 34.6691 25.0708 34.6691 23.0859 34.5147C20.7858 34.3356 19.6525 34.1688 17.9559 33.7674C17.7011 33.7056 17.3524 33.6253 17.1847 33.5882C17.0171 33.545 16.8226 33.4956 16.7488 33.4647C16.6751 33.44 16.2526 33.3165 15.81 33.1868C15.3674 33.0571 14.9785 32.9335 14.9382 32.9088C14.9047 32.8841 14.6767 32.8038 14.4353 32.7235C14.1939 32.6432 13.9256 32.5382 13.8318 32.495C13.7379 32.4518 13.644 32.4147 13.6105 32.4147C13.5702 32.4147 12.3967 31.9268 12.1553 31.8032C12.1016 31.7785 11.8535 31.655 11.6054 31.5315C11.3573 31.408 11.0354 31.2412 10.9013 31.1609C10.7605 31.0806 10.5928 31.0003 10.5325 30.9756C10.4252 30.9385 9.12424 30.1603 8.82918 29.9503C8.7487 29.8947 8.61459 29.8082 8.53412 29.7588C8.45365 29.7094 8.34635 29.6353 8.30612 29.6044C8.26588 29.5674 8.12506 29.4685 7.99765 29.3882C7.87023 29.3018 7.716 29.1906 7.65565 29.1412C7.602 29.0918 7.46118 28.9806 7.35388 28.9003C5.89871 27.7947 4.51729 26.4112 3.498 25.0338C3.02859 24.4038 2.43176 23.4897 2.43176 23.4094C2.43176 23.3724 2.41165 23.3353 2.38482 23.323C2.28423 23.2859 1.76788 22.2297 1.37223 21.2662C0.976587 20.2841 0.668117 19.16 0.493764 18.0235L0.446823 17.7456L0.393175 18.1162Z" fill="#318CE7"/>
</svg>
